#define asteroid2_width 25
#define asteroid2_height 25
static char asteroid2_bits[] = {
  0x00, 0x00, 0x00, 0x00, 0x00, 0x00, 0x00, 0x00, 0x00, 0x00, 0x00, 0x00, 
  0x00, 0xFF, 0x0F, 0x00, 0xF0, 0x01, 0x18, 0x00, 0x9C, 0x01, 0x30, 0x00, 
  0x04, 0x00, 0x20, 0x00, 0x04, 0x00, 0x20, 0x00, 0x0C, 0x00, 0x20, 0x00, 
  0x08, 0x00, 0x30, 0x00, 0x08, 0x00, 0x10, 0x00, 0x08, 0x00, 0x10, 0x00, 
  0x18, 0x00, 0x10, 0x00, 0x10, 0x00, 0x10, 0x00, 0x10, 0x00, 0x18, 0x00, 
  0x10, 0x00, 0x0C, 0x00, 0x10, 0x00, 0x06, 0x00, 0x30, 0x00, 0x03, 0x00, 
  0xE0, 0xE0, 0x01, 0x00, 0x80, 0x3F, 0x00, 0x00, 0x00, 0x00, 0x00, 0x00, 
  0x00, 0x00, 0x00, 0x00, 0x00, 0x00, 0x00, 0x00, 0x00, 0x00, 0x00, 0x00, 
  0x00, 0x00, 0x00, 0x00, };
